<svg xmlns="http://www.w3.org/2000/svg" viewBox="0 0 128 128">
  <!-- Shield shape -->
  <path d="M64 8 L112 28 L112 64 C112 92 90 114 64 122 C38 114 16 92 16 64 L16 28 Z"
        fill="#1565c0" stroke="#0d47a1" stroke-width="2"/>
  <!-- Inner shield -->
  <path d="M64 18 L102 34 L102 62 C102 86 84 104 64 112 C44 104 26 86 26 62 L26 34 Z"
        fill="#1e88e5"/>
  <!-- Chart bars -->
  <rect x="40" y="72" width="12" height="24" rx="2" fill="#e3f2fd" opacity="0.9"/>
  <rect x="58" y="56" width="12" height="40" rx="2" fill="#e3f2fd" opacity="0.9"/>
  <rect x="76" y="44" width="12" height="52" rx="2" fill="#e3f2fd" opacity="0.9"/>
  <!-- Checkmark -->
  <path d="M48 48 L58 58 L80 36" fill="none" stroke="#66bb6a" stroke-width="5"
        stroke-linecap="round" stroke-linejoin="round"/>
</svg>
